# xmcd
#
# Track frame offsets: 
#        150
#        16139
#        33457
#        44017
#        62766
#        87429
#        103262
#        117742
#        139193
#        153080
#        170840
#        190503
#        210522
#        241393
#
# Disc length: 4205 seconds
#
# Revision: 1
# Processed by: cddbd v1.5.2PL0 Copyright (c) Steve Scherf et al.
# Submitted via: ExactAudioCopy v1.3
#
DISCID=c4106b0e
DTITLE=ZVA 12-28 - Za fůzy ma poťahaj
DYEAR=2007
DGENRE=Blues
TTITLE0=Ani z voza, ani na voz
TTITLE1=Pripincnimi
TTITLE2=Čo je moč, to je moč
TTITLE3=Štátny Sviatok
TTITLE4=Rozvod
TTITLE5=Láska
TTITLE6=Rieka
TTITLE7=Pedál je Róm
TTITLE8=A hahaha ham
TTITLE9=Borneo
TTITLE10=Rozíďme sa
TTITLE11=Smutočná
TTITLE12=Láska bože láska
TTITLE13=Video
EXTD=
EXTT0=
EXTT1=
EXTT2=
EXTT3=
EXTT4=
EXTT5=
EXTT6=
EXTT7=
EXTT8=
EXTT9=
EXTT10=
EXTT11=
EXTT12=
EXTT13=
PLAYORDER=
